<?xml version="1.0" standalone="no"?>
<!DOCTYPE svg PUBLIC "-//W3C//DTD SVG 20010904//EN"
 "http://www.w3.org/TR/2001/REC-SVG-20010904/DTD/svg10.dtd">
<svg version="1.0" xmlns="http://www.w3.org/2000/svg"
 width="335.000000pt" height="58.000000pt" viewBox="0 0 335.000000 58.000000"
 preserveAspectRatio="xMidYMid meet">

<g transform="translate(0.000000,58.000000) scale(0.100000,-0.100000)"
fill="#000000" stroke="none">
<path d="M980 530 c0 -5 -26 -10 -57 -12 -55 -3 -58 -4 -67 -36 -7 -26 -6 -36
5 -44 11 -7 11 -11 2 -15 -10 -3 -13 -45 -13 -159 l0 -154 34 0 c67 0 66 -4
66 166 0 130 2 154 15 154 13 0 15 -24 15 -160 0 -178 -4 -168 69 -154 l31 7
0 153 0 154 26 0 25 0 -5 -112 c-2 -62 -8 -137 -11 -167 l-7 -54 28 7 c70 18
84 57 84 239 0 170 -4 177 -88 177 -29 0 -52 5 -52 10 0 6 -22 10 -50 10 -27
0 -50 -4 -50 -10z"/>
<path d="M1390 530 c0 -5 -26 -10 -57 -12 -55 -3 -58 -4 -67 -36 -7 -26 -6
-36 5 -44 11 -7 11 -11 2 -15 -10 -3 -13 -45 -13 -159 l0 -154 34 0 c67 0 66
-4 66 166 0 130 2 154 15 154 13 0 15 -24 15 -160 0 -178 -4 -168 69 -154 l31
7 0 153 0 154 26 0 25 0 -5 -112 c-2 -62 -8 -137 -11 -167 l-7 -54 28 7 c70
18 84 57 84 240 0 171 -2 176 -86 176 -30 0 -54 5 -54 10 0 6 -22 10 -50 10
-27 0 -50 -4 -50 -10z"/>
<path d="M1826 515 c-6 -23 -11 -25 -66 -25 l-60 0 0 -45 0 -45 41 0 c29 0 40
-4 36 -12 -3 -7 -28 -69 -57 -137 -28 -67 -50 -124 -48 -126 6 -4 71 -25 73
-23 1 2 26 63 56 135 30 73 57 133 60 133 4 0 28 -57 54 -127 26 -71 51 -131
54 -136 8 -8 71 11 71 22 0 4 -20 63 -45 130 -25 67 -45 126 -45 132 0 5 14 9
30 9 24 0 30 4 30 23 0 12 3 32 6 45 6 21 4 22 -55 22 -47 0 -59 3 -55 14 3 9
-6 18 -27 25 -44 15 -46 15 -53 -14z"/>
<path d="M146 498 c-12 -46 -7 -68 16 -68 20 0 20 -1 5 -18 -15 -17 -11 -23
73 -107 50 -49 90 -93 90 -97 0 -5 -25 -8 -55 -8 -44 0 -55 3 -55 16 0 11 -5
14 -16 10 -9 -3 -27 -9 -40 -12 -29 -7 -30 -19 -4 -61 24 -40 47 -46 149 -42
97 5 121 21 121 83 0 38 -6 47 -97 138 l-98 98 52 0 c29 0 55 -5 58 -10 6 -9
72 -4 83 6 9 7 -22 75 -38 84 -10 6 -68 10 -128 10 -105 0 -110 -1 -116 -22z"/>
<path d="M488 513 c-27 -7 -33 -49 -20 -160 17 -153 58 -225 139 -244 64 -14
89 -11 101 14 9 19 11 19 11 3 1 -14 6 -17 24 -12 12 3 32 6 45 6 l22 0 0 200
0 200 -45 0 -45 0 0 -154 0 -154 -34 -6 c-22 -4 -48 -1 -69 8 -52 21 -69 76
-65 204 l3 102 -25 -1 c-14 -1 -33 -3 -42 -6z"/>
<path d="M2087 513 c-2 -5 -7 -25 -11 -45 -7 -36 -6 -38 21 -38 24 -1 25 -2
11 -11 -14 -8 -18 -24 -18 -78 0 -53 -4 -70 -15 -75 -14 -5 -14 -9 0 -35 8
-17 15 -50 15 -76 l0 -45 45 0 45 0 0 55 c0 43 4 56 19 65 27 14 27 14 40 -19
18 -42 82 -100 119 -107 l32 -7 0 45 c0 40 -3 46 -32 60 -18 9 -41 29 -50 45
l-17 29 34 18 c41 22 55 58 55 137 0 86 -6 89 -160 89 -71 0 -131 -3 -133 -7z
m203 -117 c0 -31 -4 -35 -49 -55 -27 -11 -52 -21 -55 -21 -3 0 -6 25 -6 55 l0
55 55 0 55 0 0 -34z"/>
<path d="M2463 513 l-33 -4 0 -200 0 -199 45 0 45 0 0 205 c0 158 -3 205 -12
203 -7 0 -28 -3 -45 -5z"/>
<path d="M2572 481 c-7 -21 -12 -41 -12 -45 0 -3 34 -6 75 -6 l76 0 -55 -65
c-68 -80 -96 -133 -96 -183 0 -65 19 -74 150 -70 108 3 113 4 136 31 31 36 30
49 -5 70 -25 15 -30 15 -41 2 -9 -11 -33 -15 -82 -15 -67 0 -69 1 -63 23 14
46 80 129 136 170 45 33 58 48 58 69 1 14 4 33 7 42 5 14 -10 16 -133 16
l-140 0 -11 -39z"/>
<path d="M2912 478 c3 -42 4 -43 43 -48 33 -4 36 -6 18 -12 -13 -3 -23 -13
-23 -22 0 -9 -7 -16 -15 -16 -11 0 -15 -11 -15 -40 0 -29 4 -40 15 -40 12 0
15 -13 15 -60 0 -47 -3 -60 -15 -60 -18 0 -22 -75 -5 -85 6 -4 78 1 161 11
127 15 149 20 144 33 -4 9 -9 29 -12 44 -6 29 -6 29 -67 22 -34 -3 -73 -8 -88
-11 -28 -6 -28 -5 -28 50 l0 56 59 0 c64 0 71 6 71 61 l0 29 -65 0 c-58 0 -65
2 -65 20 0 18 7 20 85 20 l85 0 0 45 0 45 -151 0 -150 0 3 -42z"/>
<path d="M1833 195 c-39 -40 -40 -46 -13 -70 20 -19 22 -18 60 21 38 38 39 40
24 62 -20 29 -33 27 -71 -13z"/>
</g>
</svg>
