<?xml version='1.0' encoding='utf-8'?>
<svg xmlns="http://www.w3.org/2000/svg" version="1.1" width="600px" height="976px" viewBox="0 0 600 976"> <g id="layer1"> <g style="fill:rgb(0,0,0); fill-opacity:1.0; stroke-linejoin: miter"> <path d="M281.55002,612.05786C281.4128,612.05786,281.26477,612.06506,281.15015,612.07965C280.72964,612.1321,280.28015,612.3156,280.0874,612.5126C280.01764,612.585,279.984,612.6346,279.99228,612.65155C279.99826,612.6639,280.0065,612.6697,280.01733,612.6697C280.0239,612.6697,280.03143,612.66754,280.04,612.6634C280.0475,612.6597,280.0586,612.6581,280.0716,612.6581C280.0931,612.6581,280.11975,612.6627,280.14334,612.67084C280.25684,612.71,280.25217,612.7508,280.08157,613.238C279.94724,613.6199,279.91266,613.6927,279.7902,613.8905C279.7645,613.932,279.73874,613.9712,279.7129,614.008L279.71008,614.008Q279.01517,614.1106,278.6957,614.32355Q278.31848,614.5494,277.9682,615.1844Q277.85596,615.38153,277.6449,615.8149L277.82156,615.8761L277.8188,615.8761C277.8657,615.9139,278.10684,615.9945,278.3559,616.06366L278.35312,616.06366C278.30722,616.1227,278.24597,616.198,278.15817,616.3037C277.93854,616.56836,277.86386,616.66693,277.81186,616.76166C277.77036,616.8374,277.75812,616.88525,277.76907,616.92535C277.78262,616.97485,277.8207,617.01,277.91727,617.06116C277.95758,617.0824,277.97537,617.09045,277.996,617.09485C278.0002,617.0957,278.0045,617.09644,278.00912,617.0971C278.02652,617.0998,278.04196,617.10254,278.0557,617.10547C278.11264,617.11755,278.14017,617.13257,278.15482,617.15735C278.1674,617.17847,278.16528,617.2028,278.1472,617.2577C278.1384,617.28375,278.1295,617.31384,278.128,617.3249C278.1232,617.351,278.11172,617.37305,278.08188,617.41174C278.04523,617.4591,278.037,617.4768,278.03702,617.5056C278.0373,617.54785,278.05865,617.577,278.12936,617.6326C278.14474,617.6444,278.15833,617.6575,278.15958,617.661C278.16385,617.67267,278.14978,617.6938,278.1106,617.7355C278.07312,617.77576,278.06134,617.79425,278.06104,617.81464C278.0608,617.83154,278.06598,617.83966,278.11578,617.899C278.17474,617.96954,278.19635,618.0121,278.19873,618.0618C278.2,618.0961,278.19952,618.0987,278.15833,618.2158C278.09857,618.385,278.08606,618.4519,278.10202,618.517C278.12173,618.5972,278.2091,618.69885,278.3003,618.74805C278.3422,618.77045,278.37134,618.7824,278.42224,618.79645L278.46204,618.8077L278.84607,618.8154L279.2297,618.8227L279.24677,618.84247C279.26904,618.86896,279.30612,618.94824,279.32648,619.0142C279.33926,619.0552,279.3517,619.103,279.36362,619.1573L279.36392,619.15735Q279.36453,619.1576,279.36502,619.1578L279.36066,619.27905L279.36093,619.2791C279.3646,619.2887,279.3679,619.2976,279.37088,619.30615L279.37033,619.30615C279.36615,619.3083,279.3633,619.30945,279.36203,619.30975L279.36194,619.30975C279.36185,619.3098,279.36172,619.3098,279.36163,619.3098C279.3421,619.31433,279.33035,619.33923,279.32184,619.3994L279.32217,619.39954L279.31686,619.60876L279.31406,619.60876Q279.00928,619.7886,278.6985,619.9981Q278.27036,620.3088,277.9159,620.5593L277.91867,620.5593L278.19916,620.9758L278.11447,621.10895C278.06467,621.18286,277.88004,621.538,277.70035,621.89813C277.52557,622.2583,277.29117,622.68243,277.19156,622.83527C276.89276,623.2839,276.81726,623.56537,276.77884,624.3761C276.76212,624.77655,276.72083,625.1423,276.68594,625.2015C276.65103,625.2606,276.62567,625.399,276.62515,625.50775C276.62405,625.7451,276.71274,625.8098,277.0391,625.81134L277.26654,625.8124L277.26328,626.5096L277.25998,627.2068L276.78192,627.9216C276.23416,628.73486,276.22394,628.8041,276.51886,629.1813C276.7597,629.48895,276.81845,629.6178,276.73425,629.6471C276.7245,629.65063,276.71307,629.65234,276.7002,629.65234C276.589,629.65234,276.36847,629.52386,276.15225,629.3279C275.99963,629.18866,275.90588,629.14374,275.7773,629.1431C275.57953,629.1422,275.54507,629.1074,274.7541,628.0208C274.22836,627.30133,274.09586,627.0881,273.9786,626.7859C273.8662,626.49274,273.71252,626.3383,273.5484,626.3383C273.46292,626.3383,273.37463,626.3802,273.28784,626.4662C273.0941,626.6581,273.12308,626.8066,273.43222,627.3075C273.58438,627.5505,273.76096,627.8579,273.82956,627.98676C274.10385,628.5419,274.38388,628.9289,275.38678,630.1698C275.53918,630.35846,275.6619,630.5568,275.6616,630.6211C275.66132,630.6804,275.59644,630.8038,275.51193,630.8973C275.33292,631.114,275.32233,631.2574,275.48996,631.36694C275.55896,631.4118,275.64746,631.521,275.68658,631.6151C275.72076,631.7043,275.83878,631.84827,275.94714,631.9328C276.20334,632.1368,276.22736,632.2852,276.10147,632.7643C275.94534,633.3668,275.8885,633.8907,275.90018,634.5583L275.91214,635.1715L276.4802,635.29285C276.7914,635.3635,277.05814,635.42413,277.06796,635.4341C277.07782,635.44403,277.10696,635.55786,277.12613,635.6865C277.2415,636.39417,277.41614,637.10706,277.51407,637.31024C277.6512,637.5878,277.9514,637.90076,278.198,638.03046C278.4644,638.1652,278.5233,638.25946,278.39938,638.3232C278.31012,638.3722,278.30005,638.4117,278.32843,638.6887C278.34708,638.9311,278.33664,639.0448,278.26672,639.18787L278.17685,639.37537L278.33942,639.5047C278.49707,639.629,278.497,639.6389,278.471,639.91077C278.43488,640.232,278.47894,640.3262,278.87247,640.7632L279.12827,641.0462L279.1743,641.77826C279.2038,642.32697,279.25214,642.84656,279.32187,643.3736L279.3191,643.3736Q279.2948,643.3758,279.27112,643.37756L279.2739,643.37756Q279.28436,643.4218,279.29443,643.461Q279.30212,643.49695,279.30673,643.531Q279.30872,643.5461,279.3103,643.5606L279.31308,643.5606C279.34482,643.6171,279.3518,643.69086,279.35205,643.8107C279.3523,643.96173,279.41467,644.2635,279.49054,644.483C279.49506,644.4957,279.49945,644.50867,279.50375,644.52167L279.50098,644.52167C279.53925,644.7467,279.57404,644.94214,279.58432,645.00916C279.5962,645.0826,279.60486,645.1378,279.62592,645.1795L279.6231,645.1795C279.6272,645.24554,279.62933,645.31305,279.62946,645.38165L279.63037,645.88947L279.35632,646.1302C279.20557,646.2609,278.89032,646.46735,278.65033,646.5844C278.41724,646.70844,278.1636,646.87354,278.0814,646.94226C277.99234,647.03174,277.77292,647.0939,277.44357,647.1356C276.90158,647.2052,276.75076,647.28796,276.75125,647.52124C276.75137,647.6105,276.683,647.7683,276.59396,647.8783C276.5118,647.98145,276.42978,648.16003,276.42313,648.2766C276.39633,648.59924,276.5269,648.7157,276.95932,648.7561C277.50198,648.79895,278.03766,648.821,278.4598,648.821C278.7638,648.821,279.00888,648.8096,279.15533,648.7863C279.96313,648.6461,280.29776,648.58685,280.4549,648.58685C280.56995,648.58685,280.58978,648.61865,280.6305,648.67365C280.68475,648.7412,280.74188,648.77026,280.9519,648.77026C281.06146,648.77026,281.21262,648.7623,281.4267,648.74786C281.81787,648.71967,282.18835,648.67096,282.25684,648.63654C282.5448,648.4781,282.3354,646.5433,281.98468,646.1597C281.88153,646.04315,281.86755,645.8991,281.8866,645.0551C281.90527,644.03253,282.0072,643.497,282.23334,643.3388C282.4458,643.1873,282.58942,642.899,282.53418,642.7275C282.45135,642.4599,282.2921,641.69855,282.22253,641.1977C282.21857,641.17004,282.2146,641.1424,282.21063,641.1148L282.21344,641.1148Q282.2023,641.11395,282.1912,641.1131L282.18835,641.1131C282.1886,641.1019,282.18878,641.091,282.18893,641.0804C282.1899,640.87274,282.21524,640.7492,282.26492,640.7C282.3146,640.6508,282.32974,640.58167,282.31036,640.4975C282.29092,640.4232,282.30627,640.3145,282.3412,640.2504C282.39606,640.1518,282.39136,640.1023,282.3228,639.9536C282.23953,639.7851,282.23965,639.7653,282.32425,639.64703C282.3691,639.5731,282.40936,639.4249,282.40988,639.31616C282.41068,639.148,282.38126,639.0935,282.2286,638.9593C282.1301,638.87476,282.05142,638.78046,282.0516,638.7458C282.05173,638.7161,282.1511,638.61774,282.27512,638.53424C282.3991,638.45074,282.51337,638.3376,282.52847,638.28326C282.56357,638.17957,282.427,637.7784,282.32376,637.64935C282.2844,637.6096,282.25497,637.56,282.25507,637.5402C282.25513,637.5254,282.42444,637.274,282.62854,636.9832C282.83762,636.68756,283.017,636.3966,283.0322,636.3225C283.09283,636.04095,283.14255,635.9868,283.4893,635.8549L283.83606,635.723L284.27026,635.9229C284.51205,636.03284,284.8525,636.1877,285.03012,636.2726C285.7357,636.59735,285.85413,636.64734,286.4809,636.9074C287.48004,637.3153,288.99564,637.8125,289.2392,637.8125C289.2555,637.8125,289.2661,637.8103,289.27048,637.80566C289.3152,637.7663,289.09918,637.4291,288.90723,637.24023C288.77435,637.10614,288.5229,636.9566,288.1429,636.7867C287.3436,636.42194,285.55237,635.62726,284.92072,635.35236C284.34827,635.10736,284.161,634.97296,284.13223,634.7849C283.872,633.33984,283.77502,632.9339,283.38962,631.8195C283.20145,631.2644,283.1454,631.0141,283.25348,631.01196L283.25632,631.01196C283.32556,631.0133,283.4589,631.11115,283.66406,631.2917C283.78226,631.39606,283.90054,631.4807,283.9302,631.48083L283.9306,631.48083C284.0494,631.48083,284.31216,631.2254,284.31268,631.11176C284.3132,630.99805,283.91022,630.472,283.62955,630.22345C283.52615,630.129,283.49225,629.9756,283.56665,629.92645C283.5698,629.9246,283.57663,629.9237,283.5868,629.9237C283.65695,629.9237,283.8852,629.9664,284.13977,630.0281C284.4238,630.09766,284.5576,630.1289,284.64166,630.1289C284.7038,630.1289,284.73883,630.1118,284.7873,630.08057C284.93112,629.9873,284.96213,629.70557,284.83896,629.6061C284.73062,629.5166,284.05945,629.23157,283.3634,628.986C282.72165,628.7555,282.4802,628.57635,282.42715,628.2893C282.40778,628.20514,282.38364,628.0814,282.37408,628.01215C282.3596,627.9379,282.40482,627.78485,282.4847,627.61707C282.58865,627.4116,282.58093,627.3481,282.90897,627.3481C283.085,627.3481,283.35767,627.36633,283.79614,627.39087L284.52286,627.4289L284.53925,627.09766L284.55563,626.7664L284.7289,626.7228C284.823,626.6985,284.91708,626.6643,284.93695,626.64954C284.97174,626.61017,285.11218,625.1422,285.16043,624.3414C285.19803,623.7086,285.12656,622.0864,285.0488,621.7943C284.99536,621.5913,285.00052,621.5468,285.09036,621.3692C285.1952,621.16205,285.1953,621.1373,285.05423,620.64215C285.00558,620.4738,284.9172,620.3399,284.75967,620.1908C284.5469,619.9939,284.4177,619.9297,283.91458,619.83L283.91174,619.83Q283.79297,618.9277,282.4134,616.9263L282.41058,616.9263C282.51486,616.6311,282.5638,616.34283,282.55817,616.06177C282.5523,615.7873,282.49008,615.5266,282.37592,615.29584L282.37308,615.29584C282.31036,615.0149,282.19424,614.7591,282.03986,614.55945C281.93646,614.4295,281.7245,614.2527,281.62985,614.22C281.5668,614.1983,281.55862,614.1743,281.59775,614.136C281.63385,614.10376,281.641,614.0725,281.6143,614.0324L281.61148,614.0324L281.66342,613.95264Q281.64838,613.91785,281.63266,613.89185L281.62985,613.89185C281.63065,613.88617,281.6314,613.8797,281.63226,613.87256C281.64246,613.77484,281.55936,613.65436,281.4577,613.6216C281.41235,613.60583,281.35892,613.59424,281.3389,613.59424L281.3377,613.59424C281.29663,613.59595,281.22812,613.62366,281.19162,613.6507Q281.16656,613.6424,281.13962,613.6336L281.13913,613.6334L281.03116,613.7302L281.02835,613.7302C281.02695,613.73035,281.02567,613.7306,281.0245,613.73083C280.99704,613.7355,280.9467,613.77216,280.9097,613.81116C280.90256,613.81885,280.89578,613.8258,280.88916,613.83203Q280.74243,613.76355,280.63666,613.75226L280.6358,613.75214Q280.59622,613.7464,280.55475,613.7464Q280.5447,613.7464,280.53455,613.7467C280.57407,613.68024,280.61984,613.6022,280.66592,613.52216C280.96484,613.01117,280.98853,612.9699,281.1113,612.80524C281.33624,612.5016,281.68723,612.24866,281.9956,612.16693C282.13315,612.12976,282.1537,612.11804,282.11163,612.1035C282.08997,612.096,282.06223,612.0915,282.04092,612.0915C282.03323,612.0915,282.02643,612.0921,282.021,612.0933C282.01663,612.0943,282.01038,612.0948,282.00275,612.0948C281.97467,612.0948,281.9277,612.08844,281.8847,612.07916C281.81317,612.065,281.68698,612.05786,281.55002,612.05786 Z"/> </g> </g> </svg>