<svg id="Capa_1" enable-background="new 0 0 511.995 511.995" height="512" viewBox="0 0 511.995 511.995" width="512" xmlns="http://www.w3.org/2000/svg"><g id="XMLID_238_"><path id="XMLID_225_" d="m242.675 8.095-64.158 123.886c-10.393 20.051-26.483 36.143-46.531 46.532l-123.89 64.16c-5.06 2.621-8.096 7.814-8.096 13.32l140.327 10 72.187-10c0-18.461 25.02-43.48 43.48-43.48v-212.513c-5.507-.001-10.698 3.034-13.319 8.095z" fill="#575a65"/><path id="XMLID_666_" d="m212.514 255.993h-212.514c-.001 5.506 3.035 10.699 8.095 13.32l123.886 64.158c20.052 10.392 36.143 26.483 46.533 46.53l64.16 123.89c2.62 5.06 7.811 8.104 13.316 8.104h.003v-212.522c-18.46 0-43.479-25.019-43.479-43.48z" fill="#464b52"/><path id="XMLID_804_" d="m269.32 8.095 64.158 123.886c10.393 20.051 26.483 36.143 46.531 46.532l123.89 64.16c5.06 2.621 8.096 7.814 8.095 13.32l-140.327 10-72.187-10c0-18.461-25.02-43.48-43.48-43.48v-212.513c5.508-.001 10.699 3.034 13.32 8.095z" fill="#464b52"/><path id="XMLID_803_" d="m299.481 255.993h212.513c.001 5.506-3.035 10.699-8.095 13.32l-123.886 64.158c-20.052 10.392-36.143 26.483-46.533 46.53l-64.16 123.89c-2.62 5.06-7.811 8.104-13.316 8.104-.001 0-.002 0-.003 0v-212.522c18.46 0 43.48-25.019 43.48-43.48z" fill="#292b2f"/><path id="XMLID_862_" d="m255.994 192.831c-34.884 0-63.163 28.279-63.163 63.163s28.279 63.163 63.163 63.163 63.163-28.279 63.163-63.163-28.279-63.163-63.163-63.163zm0 96.325c-18.315 0-33.163-14.847-33.163-33.163s14.847-33.163 33.163-33.163 33.163 14.847 33.163 33.163-14.848 33.163-33.163 33.163z" fill="#717687"/><path id="XMLID_864_" d="m255.994 192.831c-.168 0-.333.011-.5.013v30c.167-.003.332-.013.5-.013 18.315 0 33.163 14.847 33.163 33.163s-14.847 33.163-33.163 33.163c-.168 0-.333-.01-.5-.013v30c.167.001.332.013.5.013 34.884 0 63.163-28.279 63.163-63.163s-28.279-63.163-63.163-63.163z" fill="#575a65"/></g></svg>