<?xml version="1.0" encoding="utf-8"?><svg xml:space="preserve" viewBox="0 0 100 100" y="0px" x="0px" xmlns:xlink="http://www.w3.org/1999/xlink" xmlns="http://www.w3.org/2000/svg" id="圖層_1" version="1.1" width="200px" height="200px" style="width:100%;height:100%;background-size:initial;background-repeat-y:initial;background-repeat-x:initial;background-position-y:initial;background-position-x:initial;background-origin:initial;background-image:initial;background-color:rgb(255, 255, 255);background-clip:initial;background-attachment:initial;animation-play-state:paused" ><g class="ldl-scale" style="transform-origin:50% 50%;transform:rotate(0deg) scale(0.8, 0.8);animation-play-state:paused" ><g style="animation-play-state:paused" ><path d="M54.17,56.91c1.43-0.25,2.64-1.12,3.14-2.43c0.7-1.86-0.25-4-2.17-5.12c1.01-0.4,1.82-1.15,2.21-2.17 c0.78-2.06-0.47-4.44-2.79-5.42c1.85-1.38,2.56-3.72,1.55-5.5c-1.02-1.81-3.42-2.42-5.58-1.51c0.06-1.35-0.46-2.63-1.53-3.41 c-1.34-0.97-3.16-0.89-4.64,0.05c-0.45-1.26-1.39-2.24-2.66-2.57c-1.66-0.43-3.39,0.39-4.42,1.92c-0.6-1.57-1.91-2.69-3.5-2.78 c-1.43-0.08-2.73,0.71-3.53,1.96c-1.06-1.1-2.55-1.61-3.96-1.21c-1.66,0.47-2.74,2.08-2.83,3.94c-1.1-0.17-2.21,0.08-3.06,0.79 c-1.03,0.86-1.46,2.19-1.29,3.55c-1.52-0.77-3.28-0.71-4.51,0.32c-1.31,1.09-1.65,2.95-1.03,4.66c-1.1-0.17-2.2,0.08-3.05,0.8 c-1.52,1.27-1.74,3.59-0.64,5.5c-1.41,0.12-2.67,0.84-3.29,2.07c-0.73,1.45-0.38,3.2,0.74,4.51c-1.19,0.56-2.06,1.58-2.27,2.85 c-0.35,2.06,1.16,4.06,3.43,4.7c-1.47,1.54-1.83,3.75-0.73,5.33c0.92,1.33,2.61,1.86,4.29,1.51c0.1,0.11,0.21,0.22,0.32,0.34 c-0.2,1.02-0.04,2.05,0.55,2.91c1.18,1.71,3.62,2.1,5.69,1.01c0.07,0.03,0.15,0.05,0.22,0.08c0.26,1.79,1.44,3.26,3.09,3.61 c1.65,0.35,3.32-0.52,4.28-2.05c1.58,1.49,3.85,1.82,5.43,0.67c0.15-0.11,0.28-0.22,0.4-0.35c1.42,1.25,3.35,1.59,4.86,0.69 c1.61-0.95,2.21-3.01,1.62-4.97c1.64,0.77,3.51,0.6,4.71-0.58c0.93-0.91,1.26-2.22,1.02-3.53c2.25,0.53,4.49-0.43,5.22-2.35 c0.34-0.89,0.29-1.85-0.06-2.72c2.11,0.33,4.13-0.63,4.81-2.43C54.54,58.7,54.5,57.77,54.17,56.91z" stroke-miterlimit="10" stroke-linejoin="round" stroke-linecap="round" stroke-width="3.5" stroke="#333435" fill="#FFFFFF" style="stroke:rgb(51, 52, 53);fill:rgb(255, 255, 255);animation-play-state:paused" ></path>
<path d="M51.51,25.69c-1.5-0.87-3.22-1.59-5.12-2.11c-10.03,4.69-27.16,13.46-39.1,23.7c-0.71,3.27-0.45,6.5,1.05,9.47 c0.22,0.44,0.47,0.86,0.73,1.26C20.54,44.33,41.49,31.43,51.51,25.69z" stroke-miterlimit="10" stroke-linejoin="round" stroke-linecap="round" stroke-width="3.5" stroke="#333435" fill="#F8AFB4" style="stroke:rgb(51, 52, 53);fill:rgb(248, 175, 180);animation-play-state:paused" ></path>
<path d="M30.55,24.46C18.87,28.8,9.27,38.16,7.3,47.29c11.94-10.24,29.07-19.02,39.1-23.7C41.86,22.35,36.33,22.31,30.55,24.46z" stroke-miterlimit="10" stroke-linejoin="round" stroke-linecap="round" stroke-width="3.5" stroke="#333435" fill="#E15C64" style="stroke:rgb(51, 52, 53);fill:rgb(225, 92, 100);animation-play-state:paused" ></path>
<path d="M54.86,28.19c-0.93-0.91-2.06-1.75-3.35-2.5C41.49,31.43,20.54,44.33,9.08,58.02c1.94,3.01,4.84,4.83,8.28,5.61 C27.66,49.08,46.16,34.59,54.86,28.19z" stroke-miterlimit="10" stroke-linejoin="round" stroke-linecap="round" stroke-width="3.5" stroke="#333435" fill="#E15C64" style="stroke:rgb(51, 52, 53);fill:rgb(225, 92, 100);animation-play-state:paused" ></path>
<path d="M57.44,31.95c-0.43-1.11-1.09-2.16-1.99-3.15c-0.19-0.21-0.39-0.41-0.59-0.61c-8.7,6.4-27.2,20.89-37.5,35.43 c2.75,0.63,5.85,0.6,9.11-0.02C36.01,50.65,50,38.19,57.44,31.95z" stroke-miterlimit="10" stroke-linejoin="round" stroke-linecap="round" stroke-width="3.5" stroke="#333435" fill="#F8AFB4" style="stroke:rgb(51, 52, 53);fill:rgb(248, 175, 180);animation-play-state:paused" ></path>
<path d="M26.47,63.61c7.87-1.5,16.64-6.42,23.48-13.7c6.99-7.44,9.3-13.28,7.49-17.95C50,38.19,36.01,50.65,26.47,63.61z" stroke-miterlimit="10" stroke-linejoin="round" stroke-linecap="round" stroke-width="3.5" stroke="#333435" fill="#E15C64" style="stroke:rgb(51, 52, 53);fill:rgb(225, 92, 100);animation-play-state:paused" ></path>
<path d="M56.4,30.03c-1.04,3.29-3.49,7.02-7.49,11.28c-13.69,14.57-35.1,19.7-41.6,6.86c-0.05-0.1-0.09-0.21-0.14-0.31 c-0.56,3.07-0.24,6.11,1.18,8.9c6.5,12.84,27.91,7.71,41.6-6.86C57.94,41.4,59.8,35,56.4,30.03z" stroke-miterlimit="10" stroke-linejoin="round" stroke-linecap="round" stroke-width="3.5" stroke="#000000" opacity="0.1" style="animation-play-state:paused" ></path></g>
<g style="animation-play-state:paused" ><path d="M91.14,56.91c1.43-0.25,2.64-1.12,3.14-2.43c0.7-1.86-0.25-4-2.17-5.12c1.01-0.4,1.82-1.15,2.21-2.17 c0.78-2.06-0.47-4.44-2.79-5.42c1.85-1.38,2.56-3.72,1.55-5.5c-1.02-1.81-3.42-2.42-5.58-1.51c0.06-1.35-0.46-2.63-1.53-3.41 c-1.34-0.97-3.16-0.89-4.64,0.05c-0.45-1.26-1.39-2.24-2.66-2.57c-1.66-0.43-3.39,0.39-4.42,1.92c-0.6-1.57-1.91-2.69-3.5-2.78 c-1.43-0.08-2.73,0.71-3.53,1.96c-1.06-1.1-2.55-1.61-3.96-1.21c-1.66,0.47-2.74,2.08-2.83,3.94c-1.1-0.17-2.21,0.08-3.06,0.79 c-1.03,0.86-1.46,2.19-1.29,3.55c-1.52-0.77-3.28-0.71-4.51,0.32c-1.31,1.09-1.65,2.95-1.03,4.66c-1.1-0.17-2.2,0.08-3.05,0.8 c-1.52,1.27-1.74,3.59-0.64,5.5c-1.41,0.12-2.67,0.84-3.29,2.07c-0.73,1.45-0.38,3.2,0.74,4.51c-1.19,0.56-2.06,1.58-2.27,2.85 c-0.35,2.06,1.16,4.06,3.43,4.7c-1.47,1.54-1.83,3.75-0.73,5.33c0.92,1.33,2.61,1.86,4.29,1.51c0.1,0.11,0.21,0.22,0.32,0.34 c-0.2,1.02-0.04,2.05,0.55,2.91c1.18,1.71,3.62,2.1,5.69,1.01c0.07,0.03,0.15,0.05,0.22,0.08c0.26,1.79,1.44,3.26,3.09,3.61 c1.65,0.35,3.32-0.52,4.28-2.05c1.58,1.49,3.85,1.82,5.43,0.67c0.15-0.11,0.28-0.22,0.4-0.35c1.42,1.25,3.35,1.59,4.86,0.69 c1.61-0.95,2.21-3.01,1.62-4.97c1.64,0.77,3.51,0.6,4.71-0.58c0.93-0.91,1.26-2.22,1.02-3.53c2.25,0.53,4.49-0.43,5.22-2.35 c0.34-0.89,0.29-1.85-0.06-2.72c2.11,0.33,4.13-0.63,4.81-2.43C91.51,58.7,91.47,57.77,91.14,56.91z" stroke-miterlimit="10" stroke-linejoin="round" stroke-linecap="round" stroke-width="3.5" stroke="#333435" fill="#FFFFFF" style="stroke:rgb(51, 52, 53);fill:rgb(255, 255, 255);animation-play-state:paused" ></path>
<path d="M88.49,25.69c-1.5-0.87-3.22-1.59-5.12-2.11c-10.03,4.69-27.16,13.46-39.1,23.7c-0.71,3.27-0.45,6.5,1.05,9.47 c0.22,0.44,0.47,0.86,0.73,1.26C57.51,44.33,78.46,31.43,88.49,25.69z" stroke-miterlimit="10" stroke-linejoin="round" stroke-linecap="round" stroke-width="3.5" stroke="#333435" fill="#F8AFB4" style="stroke:rgb(51, 52, 53);fill:rgb(248, 175, 180);animation-play-state:paused" ></path>
<path d="M67.52,24.46c-11.68,4.34-21.28,13.7-23.25,22.83c11.94-10.24,29.07-19.02,39.1-23.7C78.83,22.35,73.31,22.31,67.52,24.46z" stroke-miterlimit="10" stroke-linejoin="round" stroke-linecap="round" stroke-width="3.5" stroke="#333435" fill="#E15C64" style="stroke:rgb(51, 52, 53);fill:rgb(225, 92, 100);animation-play-state:paused" ></path>
<path d="M91.83,28.19c-0.93-0.91-2.06-1.75-3.35-2.5c-10.02,5.73-30.98,18.63-42.44,32.32c1.94,3.01,4.84,4.83,8.28,5.61 C64.63,49.08,83.14,34.59,91.83,28.19z" stroke-miterlimit="10" stroke-linejoin="round" stroke-linecap="round" stroke-width="3.5" stroke="#333435" fill="#E15C64" style="stroke:rgb(51, 52, 53);fill:rgb(225, 92, 100);animation-play-state:paused" ></path>
<path d="M94.41,31.95c-0.43-1.11-1.09-2.16-1.99-3.15c-0.19-0.21-0.39-0.41-0.59-0.61c-8.7,6.4-27.2,20.89-37.5,35.43 c2.75,0.63,5.85,0.6,9.11-0.02C72.98,50.65,86.97,38.19,94.41,31.95z" stroke-miterlimit="10" stroke-linejoin="round" stroke-linecap="round" stroke-width="3.5" stroke="#333435" fill="#F8AFB4" style="stroke:rgb(51, 52, 53);fill:rgb(248, 175, 180);animation-play-state:paused" ></path>
<path d="M63.44,63.61c7.87-1.5,16.64-6.42,23.48-13.7c6.99-7.44,9.3-13.28,7.49-17.95C86.97,38.19,72.98,50.65,63.44,63.61z" stroke-miterlimit="10" stroke-linejoin="round" stroke-linecap="round" stroke-width="3.5" stroke="#333435" fill="#E15C64" style="stroke:rgb(51, 52, 53);fill:rgb(225, 92, 100);animation-play-state:paused" ></path>
<path d="M93.38,30.03c-1.04,3.29-3.49,7.02-7.49,11.28c-13.69,14.57-35.1,19.7-41.6,6.86c-0.05-0.1-0.09-0.21-0.14-0.31 c-0.56,3.07-0.24,6.11,1.18,8.9c6.5,12.84,27.91,7.71,41.6-6.86C94.91,41.4,96.77,35,93.38,30.03z" stroke-miterlimit="10" stroke-linejoin="round" stroke-linecap="round" stroke-width="3.5" stroke="#000000" opacity="0.1" style="animation-play-state:paused" ></path></g>
<metadata xmlns:d="https://loading.io/stock/" style="animation-play-state:paused" ><d:name style="animation-play-state:paused" >sushi</d:name>


<d:tags style="animation-play-state:paused" >sushi,rice,japanese food,sea food,salmon</d:tags>


<d:license style="animation-play-state:paused" >by</d:license>


<d:slug style="animation-play-state:paused" >icbtm6</d:slug></metadata></g><!-- generated by https://loading.io/ --></svg>