<?xml version="1.0" encoding="utf-8"?><svg xml:space="preserve" viewBox="0 0 100 100" y="0px" x="0px" xmlns:xlink="http://www.w3.org/1999/xlink" xmlns="http://www.w3.org/2000/svg" id="圖層_1" version="1.1" width="200px" height="200px" style="width:100%;height:100%;background-size:initial;background-repeat-y:initial;background-repeat-x:initial;background-position-y:initial;background-position-x:initial;background-origin:initial;background-image:initial;background-color:rgb(255, 255, 255);background-clip:initial;background-attachment:initial;animation-play-state:paused" ><g class="ldl-scale" style="transform-origin:50% 50%;transform:rotate(0deg) scale(0.8, 0.8);animation-play-state:paused" ><g style="animation-play-state:paused" ><path d="M54.42,58.33c1.44-0.25,2.66-1.12,3.15-2.44c0.71-1.87-0.26-4.02-2.18-5.14c1.02-0.4,1.83-1.16,2.22-2.18 c0.78-2.07-0.47-4.46-2.81-5.45c1.86-1.39,2.57-3.73,1.55-5.53c-1.02-1.82-3.44-2.43-5.61-1.52c0.06-1.36-0.46-2.64-1.54-3.42 c-1.34-0.98-3.17-0.89-4.67,0.05c-0.45-1.27-1.4-2.25-2.67-2.58c-1.67-0.43-3.41,0.39-4.44,1.93c-0.6-1.58-1.92-2.71-3.52-2.79 c-1.44-0.08-2.74,0.71-3.55,1.97c-1.07-1.1-2.56-1.62-3.98-1.22c-1.67,0.48-2.75,2.09-2.85,3.96c-1.11-0.17-2.22,0.08-3.08,0.8 c-1.03,0.86-1.46,2.2-1.3,3.57c-1.53-0.78-3.29-0.71-4.53,0.32c-1.31,1.1-1.66,2.97-1.03,4.69c-1.11-0.17-2.21,0.08-3.07,0.8 c-1.53,1.28-1.75,3.61-0.64,5.52c-1.42,0.12-2.68,0.85-3.31,2.08c-0.74,1.46-0.38,3.22,0.75,4.53c-1.19,0.56-2.07,1.59-2.28,2.86 c-0.35,2.07,1.16,4.08,3.44,4.72c-1.48,1.55-1.84,3.76-0.74,5.36c0.92,1.34,2.62,1.87,4.31,1.52c0.1,0.12,0.21,0.23,0.32,0.34 c-0.2,1.02-0.04,2.06,0.56,2.92c1.18,1.72,3.64,2.11,5.72,1.01c0.07,0.03,0.15,0.05,0.22,0.08c0.26,1.8,1.44,3.27,3.11,3.62 c1.66,0.35,3.33-0.52,4.3-2.06c1.59,1.5,3.87,1.83,5.46,0.67c0.15-0.11,0.28-0.22,0.4-0.35c1.43,1.25,3.37,1.6,4.88,0.7 c1.61-0.96,2.23-3.02,1.63-4.99c1.64,0.78,3.52,0.61,4.74-0.59c0.93-0.92,1.26-2.24,1.03-3.55c2.26,0.54,4.51-0.43,5.24-2.37 c0.34-0.9,0.29-1.85-0.06-2.73c2.12,0.34,4.15-0.63,4.84-2.45C54.78,60.12,54.74,59.19,54.42,58.33z" stroke-miterlimit="10" stroke-linejoin="round" stroke-linecap="round" stroke-width="3.5" stroke="#333435" fill="#FFFFFF" style="stroke:rgb(51, 52, 53);fill:rgb(255, 255, 255);animation-play-state:paused" ></path>
<path d="M53.91,35.4l-1.22,1.35l-17.2,19c-1.57,1.74-4.1,2.43-6.48,1.76l-17.07-4.75c-0.99-0.27-1.83-0.75-2.53-1.34 c-1.18-1-1.93-2.36-2.15-3.79l-0.57,8.12l-0.04,0.57c-0.07,2.63,1.68,5.28,4.73,6.13l17.07,4.75c2.38,0.66,4.91-0.02,6.48-1.76 L53.35,45.1c0.54-0.6,0.93-1.27,1.17-1.96l0.2-2.89l0.52-7.42C55.04,33.74,54.61,34.63,53.91,35.4z" stroke-miterlimit="10" stroke-linejoin="round" stroke-linecap="round" stroke-width="3.5" stroke="#333435" fill="#F5E169" style="stroke:rgb(51, 52, 53);fill:rgb(245, 225, 105);animation-play-state:paused" ></path>
<path d="M53.91,35.4l-1.22,1.35l-17.2,19c-1.57,1.74-4.1,2.43-6.48,1.76l-17.07-4.75c-0.99-0.27-1.83-0.75-2.53-1.34 c-1.18-1-1.93-2.36-2.15-3.79l-0.57,8.12l-0.04,0.57c-0.07,2.63,1.68,5.28,4.73,6.13l17.07,4.75c2.38,0.66,4.91-0.02,6.48-1.76 L53.35,45.1c0.54-0.6,0.93-1.27,1.17-1.96l0.2-2.89l0.52-7.42C55.04,33.74,54.61,34.63,53.91,35.4z" stroke-miterlimit="10" stroke-linejoin="round" stroke-linecap="round" stroke-width="3.5" stroke="#000000" opacity="0.1" style="animation-play-state:paused" ></path>
<path d="M50.64,25.65l-15.01-4.18c-2.24-0.62-4.62-0.06-6.21,1.48L8.94,42.72c-0.76,0.73-1.24,1.58-1.51,2.47l-0.17,2.44 c0.21,1.43,0.96,2.79,2.15,3.79c0.7,0.59,1.54,1.06,2.53,1.34l17.07,4.75c2.38,0.66,4.91-0.02,6.48-1.76l17.2-19l1.22-1.35 c0.7-0.78,1.13-1.66,1.33-2.57l0.12-1.67C55.16,28.73,53.43,26.43,50.64,25.65z" stroke-miterlimit="10" stroke-linejoin="round" stroke-linecap="round" stroke-width="3.5" stroke="#333435" fill="#F5E169" style="stroke:rgb(51, 52, 53);fill:rgb(245, 225, 105);animation-play-state:paused" ></path>
<polygon points="43.03,47.47 13.06,39.39 18.67,33.83 47.9,41.85" stroke-miterlimit="10" stroke-linejoin="round" stroke-linecap="round" stroke-width="3.5" stroke="#333435" fill="#666868" style="stroke:rgb(51, 52, 53);fill:rgb(102, 104, 104);animation-play-state:paused" ></polygon>
<path d="M49.92,65.93c-0.73,1.77-1.8,3.24-3.16,4.45c-0.82,0.73-2.13,0.23-2.2-0.87l-1.52-22.04l4.87-5.62L49.92,65.93z" stroke-miterlimit="10" stroke-linejoin="round" stroke-linecap="round" stroke-width="3.5" stroke="#333435" fill="#666868" style="stroke:rgb(51, 52, 53);fill:rgb(102, 104, 104);animation-play-state:paused" ></path></g>
<g style="animation-play-state:paused" ><path d="M91.57,58.33c1.44-0.25,2.66-1.12,3.15-2.44c0.71-1.87-0.26-4.02-2.18-5.14c1.02-0.4,1.83-1.16,2.22-2.18 c0.78-2.07-0.47-4.46-2.81-5.45c1.86-1.39,2.57-3.73,1.55-5.53c-1.02-1.82-3.44-2.43-5.61-1.52c0.06-1.36-0.46-2.64-1.54-3.42 c-1.34-0.98-3.17-0.89-4.67,0.05c-0.45-1.27-1.4-2.25-2.67-2.58c-1.67-0.43-3.41,0.39-4.44,1.93c-0.6-1.58-1.92-2.71-3.52-2.79 c-1.44-0.08-2.74,0.71-3.55,1.97c-1.07-1.1-2.56-1.62-3.98-1.22c-1.67,0.48-2.75,2.09-2.85,3.96c-1.11-0.17-2.22,0.08-3.08,0.8 c-1.03,0.86-1.46,2.2-1.3,3.57c-1.53-0.78-3.29-0.71-4.53,0.32c-1.31,1.1-1.66,2.97-1.03,4.69c-1.11-0.17-2.21,0.08-3.07,0.8 c-1.53,1.28-1.75,3.61-0.64,5.52c-1.42,0.12-2.68,0.85-3.31,2.08c-0.74,1.46-0.38,3.22,0.75,4.53c-1.19,0.56-2.07,1.59-2.28,2.86 c-0.35,2.07,1.16,4.08,3.44,4.72c-1.48,1.55-1.84,3.76-0.74,5.36c0.92,1.34,2.62,1.87,4.31,1.52c0.1,0.12,0.21,0.23,0.32,0.34 c-0.2,1.02-0.04,2.06,0.56,2.92c1.18,1.72,3.64,2.11,5.72,1.01c0.07,0.03,0.15,0.05,0.22,0.08c0.26,1.8,1.44,3.27,3.11,3.62 c1.66,0.35,3.33-0.52,4.3-2.06c1.59,1.5,3.87,1.83,5.46,0.67c0.15-0.11,0.28-0.22,0.4-0.35c1.43,1.25,3.37,1.6,4.88,0.7 c1.61-0.96,2.23-3.02,1.63-4.99c1.64,0.78,3.52,0.61,4.74-0.59c0.93-0.92,1.26-2.24,1.03-3.55c2.26,0.54,4.51-0.43,5.24-2.37 c0.34-0.9,0.29-1.85-0.06-2.73c2.12,0.34,4.15-0.63,4.84-2.45C91.94,60.12,91.9,59.19,91.57,58.33z" stroke-miterlimit="10" stroke-linejoin="round" stroke-linecap="round" stroke-width="3.5" stroke="#333435" fill="#FFFFFF" style="stroke:rgb(51, 52, 53);fill:rgb(255, 255, 255);animation-play-state:paused" ></path>
<path d="M91.06,35.4l-1.22,1.35l-17.2,19c-1.57,1.74-4.1,2.43-6.48,1.76L49.1,52.76c-0.99-0.27-1.83-0.75-2.53-1.34 c-1.18-1-1.93-2.36-2.15-3.79l-0.57,8.12l-0.04,0.57c-0.07,2.63,1.68,5.28,4.73,6.13l17.07,4.75c2.38,0.66,4.91-0.02,6.48-1.76 L90.51,45.1c0.54-0.6,0.93-1.27,1.17-1.96l0.2-2.89l0.52-7.42C92.2,33.74,91.77,34.63,91.06,35.4z" stroke-miterlimit="10" stroke-linejoin="round" stroke-linecap="round" stroke-width="3.5" stroke="#333435" fill="#F5E169" style="stroke:rgb(51, 52, 53);fill:rgb(245, 225, 105);animation-play-state:paused" ></path>
<path d="M91.06,35.4l-1.22,1.35l-17.2,19c-1.57,1.74-4.1,2.43-6.48,1.76L49.1,52.76c-0.99-0.27-1.83-0.75-2.53-1.34 c-1.18-1-1.93-2.36-2.15-3.79l-0.57,8.12l-0.04,0.57c-0.07,2.63,1.68,5.28,4.73,6.13l17.07,4.75c2.38,0.66,4.91-0.02,6.48-1.76 L90.51,45.1c0.54-0.6,0.93-1.27,1.17-1.96l0.2-2.89l0.52-7.42C92.2,33.74,91.77,34.63,91.06,35.4z" stroke-miterlimit="10" stroke-linejoin="round" stroke-linecap="round" stroke-width="3.5" stroke="#000000" opacity="0.1" style="animation-play-state:paused" ></path>
<path d="M87.79,25.65l-15.01-4.18c-2.24-0.62-4.62-0.06-6.21,1.48L46.1,42.72c-0.76,0.73-1.24,1.58-1.51,2.47l-0.17,2.44 c0.21,1.43,0.96,2.79,2.15,3.79c0.7,0.59,1.54,1.06,2.53,1.34l17.07,4.75c2.38,0.66,4.91-0.02,6.48-1.76l17.2-19l1.22-1.35 c0.7-0.78,1.13-1.66,1.33-2.57l0.12-1.67C92.32,28.73,90.59,26.43,87.79,25.65z" stroke-miterlimit="10" stroke-linejoin="round" stroke-linecap="round" stroke-width="3.5" stroke="#333435" fill="#F5E169" style="stroke:rgb(51, 52, 53);fill:rgb(245, 225, 105);animation-play-state:paused" ></path>
<polygon points="80.19,47.47 50.22,39.39 55.82,33.83 85.06,41.85" stroke-miterlimit="10" stroke-linejoin="round" stroke-linecap="round" stroke-width="3.5" stroke="#333435" fill="#666868" style="stroke:rgb(51, 52, 53);fill:rgb(102, 104, 104);animation-play-state:paused" ></polygon>
<path d="M87.07,65.93c-0.73,1.77-1.8,3.24-3.16,4.45c-0.82,0.73-2.13,0.23-2.2-0.87l-1.52-22.04l4.87-5.62L87.07,65.93z" stroke-miterlimit="10" stroke-linejoin="round" stroke-linecap="round" stroke-width="3.5" stroke="#333435" fill="#666868" style="stroke:rgb(51, 52, 53);fill:rgb(102, 104, 104);animation-play-state:paused" ></path></g>
<metadata xmlns:d="https://loading.io/stock/" style="animation-play-state:paused" ><d:name style="animation-play-state:paused" >sushi</d:name>


<d:tags style="animation-play-state:paused" >sushi,rice,japanese food,roe,delicious</d:tags>


<d:license style="animation-play-state:paused" >by</d:license>


<d:slug style="animation-play-state:paused" >jmk646</d:slug></metadata></g><!-- generated by https://loading.io/ --></svg>